M48
;Layer_Color=9474304
;FILE_FORMAT=4:4
METRIC,TZ
;TYPE=PLATED
T1F00S00C0.9000
T2F00S00C1.0000
T3F00S00C1.3000
%
T01
X1596810Y463270
Y483270
X1616810
X1636810
X1656810
X1676810
X1696810
X1716810
X1736810
Y463270
X1716810
X1696810
X1676810
X1656810
X1636810
X1616810
X1616810Y663270
Y683270
X1596810
Y663270
X1636810
Y683270
X1656810Y683270
Y663270
X1676810
Y683270
X1696810
X1716810
Y663270
X1696810
X1736810
Y683270
X1576810Y683270
Y663270
X1576810Y483270
Y463270
X779560Y932890
Y952890
Y972890
Y992890
X779560Y1012890
X759560
Y992890
Y972890
Y952890
Y932890
Y1032890
X779560
Y1052890
Y1072890
X759560
X759560Y1052890
X759560Y1092890
X779560
X579560Y1092890
Y1072890
X559560
X559560Y1092890
Y1052890
Y1032890
Y1012890
Y992890
Y972890
Y952890
Y932890
X579560
Y952890
Y972890
Y992890
Y1012890
Y1032890
Y1052890
X1111560
Y1032890
Y1012890
Y992890
Y972890
Y952890
Y932890
X1131560
Y952890
Y972890
Y992890
Y1012890
Y1032890
Y1052890
Y1072890
X1111560
X1111560Y1092890
X1131560
X1311560Y1092890
X1331560
X1331560Y1072890
Y1052890
X1311560
X1311560Y1072890
Y1032890
X1331560
X1331560Y1012890
X1311560
Y992890
X1331560
Y972890
Y952890
X1311560
Y972890
Y932890
X1331560
T02
X376560Y278290
Y303690
Y329090
Y354490
Y379890
X856560Y378490
Y353090
Y327690
Y302290
Y276890
X928560Y278290
Y303690
Y329090
Y354490
Y379890
X1408560Y378490
Y353090
Y327690
Y302290
Y276890
X1648910Y332770
X1674310
X1729310Y330270
X1754710
X2036410Y280270
X2061810
X2087210
X2112610
X2138010
X2163410
X2188810
X2214210
X2264410
X2289810
X2315210
X2340610
X2366010
X2391410
X2392810Y760270
X2367410
X2342010
X2316610
X2291210
X2265810
X2240410
X2215010
X2175010
X2149610
X2124210
X2098810
X2073410
X2048010
X2022610
X1997210
X1971810
X1946410
X1619660Y754920
X1594260
Y729520
X1619660
X1568860
X1543460
X1518060
Y754920
X1543460
X1568860
X1408560Y723290
Y697890
Y672490
Y647090
Y621690
Y596290
Y570890
Y545490
Y520090
Y494690
Y454690
Y429290
Y403890
X928560Y405290
Y455490
Y480890
Y506290
Y531690
Y557090
Y582490
Y607890
Y633290
X856560Y621690
Y596290
Y570890
Y545490
Y520090
Y494690
Y454690
Y429290
Y403890
Y647090
Y672490
Y697890
Y723290
X376560Y633290
Y607890
Y582490
Y557090
Y531690
Y506290
Y480890
Y455490
Y405290
X426560Y914990
Y940390
X429060Y995390
Y1020790
X825810Y1050040
Y1075440
Y1100840
Y1126240
Y1151640
X851210
Y1126240
Y1100840
Y1075440
Y1050040
X981060Y1020790
Y995390
X978560Y940390
Y914990
X1377810Y1050040
Y1075440
Y1100840
Y1126240
Y1151640
X1403210
Y1126240
Y1100840
Y1075440
Y1050040
T03
X1512810Y298270
Y342270
X394560Y1156890
X438560
X946560
X990560
M30
